<?xml version="1.0" encoding="utf-8"?>
<!-- Generator: Adobe Illustrator 25.0.0, SVG Export Plug-In . SVG Version: 6.00 Build 0)  -->
<svg version="1.1" id="Capa_1" xmlns="http://www.w3.org/2000/svg" xmlns:xlink="http://www.w3.org/1999/xlink" x="0px" y="0px"
	 viewBox="0 0 304.5 304.5" style="enable-background:new 0 0 304.5 304.5;" xml:space="preserve">
<g>
	<g>
		<path d="M287.1,144.5c-9.6-9.6-23.6-12.3-35.7-8.1v-6.3c0-0.1,0-0.2,0-0.3c0-0.1,0-0.2,0-0.3c0-4.7-3.8-8.5-8.5-8.5h-227
			c-4.7,0-8.5,3.8-8.5,8.5v34.9c0,43.1,24.8,80.5,60.9,98.8H15.9c-3.1,0-5.9,1.7-7.4,4.4c-1.5,2.7-1.4,6,0.3,8.6l15.4,24.4
			c1.6,2.5,4.3,4,7.2,4h196.3c2.9,0,5.6-1.5,7.2-4l15.4-24.4c1.7-2.6,1.7-5.9,0.3-8.6c-1.5-2.7-4.3-4.4-7.4-4.4h-52.1
			c26-13.1,46-36.3,55.2-64.3c5.2,2.9,11,4.3,16.7,4.3c8.8,0,17.7-3.4,24.3-10c6.5-6.5,10.1-15.1,10.1-24.3S293.6,151,287.1,144.5z
			 M234.4,138v12.4h-210V138H234.4z M275,181.1c-6.4,6.4-16.9,6.8-23.7,0.8c-0.4-0.3-0.7-0.6-1.1-0.8c0.8-5.3,1.2-10.8,1.2-16.3
			v-9.1c6.8-5.9,17.2-5.6,23.6,0.9c3.3,3.3,5.1,7.6,5.1,12.3S278.3,177.8,275,181.1z"/>
		<path d="M79.2,74.3c1.9,1,3.2,1.6,3.6,2.3C84.1,80,80,85,77.5,87.7c-3.2,3.4-3.1,8.8,0.3,12c1.6,1.6,3.8,2.3,5.9,2.3
			c2.2,0,4.5-0.9,6.2-2.6c12.4-13,11.3-23.5,8.3-30L98,69.1c-2.9-5.8-7.8-8.3-11.1-9.9c-1.3-0.7-2.9-1.5-3.3-2l-0.1-0.1
			c-3.2-4.1,1.8-9.5,3.4-11.1c3.4-3.3,3.4-8.7,0.2-12c-3.3-3.4-8.7-3.4-12-0.2c-10.7,10.4-12.6,23.6-5,33.6
			C72.8,71.1,76.5,73,79.2,74.3z"/>
		<path d="M121.1,58.6c4.2,2.1,6.6,3.4,7.9,5.9c2.7,6.1-0.4,13.9-9.2,23.2c-3.2,3.4-3.1,8.8,0.3,12c1.6,1.6,3.8,2.3,5.9,2.3
			c2.2,0,4.5-0.9,6.2-2.6c17.7-18.6,16.4-33.2,12.3-42.1l-0.1-0.2c-3.8-7.7-10.3-10.9-15.5-13.6c-3-1.5-5.6-2.8-6.9-4.6l-0.1-0.1
			c-7.6-9.8,2.5-21,5.8-24.2c3.4-3.3,3.4-8.7,0.2-12c-3.3-3.4-8.7-3.4-12-0.2c-15,14.6-18,33-7.4,46.7C112,54,117,56.6,121.1,58.6z"
			/>
		<path d="M169.9,66.2c3.1,1.6,4.9,2.6,5.8,4.2c1.9,4.4-0.5,10.2-7.3,17.3c-3.2,3.4-3.1,8.8,0.3,12c1.6,1.6,3.8,2.3,5.9,2.3
			c2.2,0,4.5-0.9,6.2-2.6c15.1-15.9,14-28.5,10.4-36.3l-0.1-0.2c-3.4-6.8-9.1-9.7-13.4-11.8c-2.3-1.2-4.3-2.2-5.2-3.3l-0.1-0.1
			c-5.4-7.1,2.2-15.4,4.6-17.8c3.4-3.3,3.4-8.7,0.2-12c-3.3-3.4-8.7-3.4-12-0.2c-12.9,12.6-15.4,28.4-6.3,40.3
			C162.1,62.3,166.4,64.5,169.9,66.2z"/>
	</g>
</g>
</svg>
