<?xml version="1.0" encoding="iso-8859-1"?>
<!-- Uploaded to: SVG Repo, www.svgrepo.com, Generator: SVG Repo Mixer Tools -->
<svg height="800px" width="800px" version="1.1" id="Layer_1" xmlns="http://www.w3.org/2000/svg" xmlns:xlink="http://www.w3.org/1999/xlink" 
	 viewBox="0 0 512 512" xml:space="preserve">
<path style="fill:#F2AED0;" d="M350.028,117.021c-9.594-4.506-19.647-7.899-29.985-10.124
	c-20.025-31.711-54.79-51.073-92.686-51.073c-60.461,0-109.649,49.188-109.649,109.648c0,1.075,0.017,2.162,0.052,3.256
	c-22.704,18.028-36.111,45.603-36.111,74.767c0,9.629,7.806,17.435,17.435,17.435h313.835c9.629,0,17.435-7.806,17.435-17.435
	C430.353,189.586,398.824,139.941,350.028,117.021z"/>
<g>
	<path style="fill:#EE8FBD;" d="M350.028,117.021c-9.594-4.506-19.647-7.899-29.985-10.124
		c-14.098-22.326-35.508-38.518-60.168-46.155v200.19h153.043c9.629,0,17.435-7.806,17.435-17.435
		C430.353,189.586,398.824,139.941,350.028,117.021z"/>
	<path style="fill:#EE8FBD;" d="M256.001,114.119c20.177,0,37.28-13.394,42.898-31.755c-19.555-16.861-44.763-26.54-71.543-26.54
		c-4.89,0-9.706,0.327-14.428,0.951c-1.152,3.968-1.783,8.155-1.783,12.489C211.147,93.997,231.268,114.119,256.001,114.119z"/>
</g>
<path style="fill:#DE3205;" d="M256.001,0c-24.733,0-44.855,20.123-44.855,44.855s20.123,44.854,44.855,44.854
	s44.854-20.121,44.854-44.854S280.734,0,256.001,0z"/>
<path style="fill:#BF2717;" d="M256.001,0v89.709c24.733,0,44.854-20.121,44.854-44.854S280.734,0,256.001,0z"/>
<path style="fill:#7930AC;" d="M449.198,259.1c-3.313-3.994-8.232-6.305-13.421-6.305H76.223c-5.189,0-10.108,2.311-13.421,6.305
	c-3.313,3.994-4.674,9.256-3.714,14.355l39.52,209.999c1.551,8.241,8.748,14.211,17.134,14.211h280.514
	c8.386,0,15.584-5.97,17.134-14.211l39.52-209.999C453.871,268.356,452.51,263.094,449.198,259.1z"/>
<path style="fill:#6D2B92;" d="M449.198,259.1c-3.313-3.994-8.232-6.305-13.421-6.305H260.665v17.435c-0.005,0-0.01,0-0.015,0
	v209.999c0.005,0,0.01,0,0.015,0v17.435h135.592c8.386,0,15.584-5.97,17.134-14.211l39.52-209.999
	C453.871,268.356,452.51,263.094,449.198,259.1z"/>
<path style="fill:#9C1457;" d="M413.305,512H105.282c-16.049,0-29.059-13.01-29.059-29.059l0,0h366.141l0,0
	C442.364,498.99,429.355,512,413.305,512z"/>
<g>
	<path style="fill:#9F56CC;" d="M168.258,462.793c4.975,0,9.713-2.125,13.021-5.84c3.308-3.715,4.873-8.667,4.297-13.608
		l-16.302-140.258c-1.022-8.791-8.468-15.422-17.318-15.422c-4.975,0-9.713,2.125-13.021,5.84
		c-3.308,3.715-4.873,8.667-4.297,13.608l16.303,140.258C151.962,456.163,159.408,462.793,168.258,462.793z"/>
	<path style="fill:#9F56CC;" d="M257.163,462.793c9.629,0,17.435-7.806,17.435-17.435V305.101c0-9.629-7.806-17.435-17.435-17.435
		c-9.629,0-17.435,7.806-17.435,17.435v140.258C239.728,454.988,247.534,462.793,257.163,462.793z"/>
	<path style="fill:#9F56CC;" d="M346.068,462.793c8.85,0,16.296-6.631,17.318-15.422l16.303-140.258
		c0.574-4.941-0.989-9.893-4.297-13.608s-8.046-5.84-13.021-5.84c-8.85,0-16.296,6.631-17.318,15.422L328.75,443.346
		c-0.574,4.941,0.989,9.893,4.297,13.608C336.356,460.668,341.094,462.793,346.068,462.793z"/>
</g>
</svg>