<?xml version="1.0" encoding="utf-8"?>
<!DOCTYPE svg PUBLIC "-//W3C//DTD SVG 1.1//EN" "http://www.w3.org/Graphics/SVG/1.1/DTD/svg11.dtd">
<svg version="1.1" id="Layer_1" xmlns="http://www.w3.org/2000/svg" xmlns:xlink="http://www.w3.org/1999/xlink" x="0px" y="0px"
	 viewBox="0 0 3964.0879 3246.2964" enable-background="new 0 0 3964.0879 3246.2964" xml:space="preserve">
<g>
	<path d="M2131.5344,1629.8419c4.1775-3.5336,7.9526-1.2368,11.6143-0.3831c29.2178,6.8125,58.0923,14.9142,86.374,24.8943
		c50.2456,17.7307,100.6116,35.1824,150.3672,54.2151c31.0764,11.8875,61.2297,26.2356,90.6563,41.9285
		c4.7026,2.5079,9.3647,5.0983,14.1379,7.4648c6.804,3.3729,10.114,2.0753,11.3286-5.2002
		c3.6377-21.7933,10.2969-42.6906,17.875-63.3557c1.3696-3.735,2.4744-7.6001,3.3193-11.488
		c1.9221-8.8416,1.1099-10.7618-7.0613-13.55c-27.7329-9.4636-55.5439-18.6985-83.3372-27.985
		c-6.946-2.3208-14.1702-3.9661-20.8662-6.8507c-27.2329-11.7316-56.0837-16.8091-85.1028-21.1476
		c-46.7722-6.9928-93.7-13.0316-140.3298-20.8566c-21.5251-3.6119-43.5454-6.4387-63.8293-15.2533
		c-5.1938-2.257-9.062,1.8359-13.448,0.1554c-0.9819-0.3763-2.0608-1.5924-2.2854-2.6021
		c-0.3533-1.5905,0.7856-2.5928,2.4167-2.4705c9.8982,0.7416,19.7813,1.7631,29.6909,2.266
		c32.5864,1.6547,65.2214,2.5569,97.7656,4.7966c56.7537,3.9056,112.0725,15.4176,166.2961,32.6403
		c36.1824,11.4927,72.6226,22.1808,109.0034,33.0406c17.7808,5.3077,18.5654,4.5889,21.6431-13.8334
		c6.4731-38.745,12.9749-77.4855,19.584-116.2075c2.25-13.1815,3.4958-26.3721,2.9983-39.7783
		c-1.2102-32.6187-0.8997-65.2869-4.3511-97.8285c-1.1851-11.1715-2.323-22.6399,1.9233-33.6399
		c0.6895-1.7869,1.2551-3.9333,3.7437-3.4596c1.1392,0.2167,2.4824,1.1768,3.0598,2.1853c1.6455,2.8734,3.083,5.8877,4.3545,8.9495
		c3.5723,8.6046,6.7363,17.3888,10.5618,25.8767c27.8486,61.7903,35.1042,126.5898,28.5876,193.4435
		c-0.9038,9.2694-1.925,18.5336-2.5403,27.8235c-1.3232,19.9769-3.698,39.7638-8.2117,59.322
		c-3.491,15.1262-1.7944,18.49,11.1008,26.166c49.2578,29.3207,96.8296,61.131,143.5396,94.3856
		c22.3098,15.8831,43.6196,32.8047,64.3167,50.5754c10.072,8.6479,19.2341,18.3735,28.5862,27.8308
		c2.2788,2.3044,3.8867,5.3672,5.4133,8.2852c0.9075,1.7351,1.0317,4.0559-0.8965,5.3135
		c-0.6287,0.4099-2.7217-0.2651-3.2593-1.0505c-7.7717-11.344-20.3889-16.8452-30.2866-25.5142
		c-15.1353-13.2559-31.7981-24.1958-48.4114-35.2339c-35.4941-23.5833-70.752-47.6028-107.1799-69.6718
		c-23.8586-14.454-47.9753-28.5458-71.8938-42.9407c-3.1599-1.9019-7.1465-0.6832-8.0908,2.5177
		c-1.1277,3.823-1.9268,7.7484-2.7529,11.6537c-5.5232,26.1053-12.7849,51.7107-21.9543,76.7728
		c-1.1438,3.127-2.3357,6.2478-3.2549,9.4436c-3.3569,11.6665-2.4873,14.606,7.5676,21.8989
		c6.998,5.0759,14.3064,9.7393,21.6079,14.3799c36.665,23.3022,70.1975,50.5186,102.0439,80.0242
		c32.792,30.3816,63.5212,62.6624,92.6077,96.5586c12.6399,14.7305,21.8452,31.8364,32.8853,47.6744
		c2.2424,3.2173,3.6223,7.1243,4.9058,10.8818c0.572,1.675,0.5874,4.2344-0.3379,5.5593c-1.3081,1.8733-3.4104,0.3577-4.9526-0.6213
		c-5.6946-3.6155-10.1145-8.5432-14.3977-13.699c-15.7512-18.9608-31.8096-37.6676-47.4558-56.7137
		c-20.8184-25.3423-44.7292-47.5146-69.4619-68.8875c-42.9089-37.0793-89.0916-69.875-134.9133-103.1426
		c-1.5879-1.1531-3.4465-1.9329-5.0991-2.8425c-4.1528,2.2122-4.627,6.3867-6.0718,9.967
		c-15.2856,37.8826-36.5784,72.4651-58.6511,106.6096c-2.158,3.3381-4.8145,6.3813-7.4443,9.3821
		c-12.2952,14.0278-25.0649,27.6606-36.9226,42.0466c-27.4536,33.3062-61.0093,59.2377-97.0491,82.4022
		c-24.1113,15.4976-48.3005,30.6572-74.6611,42.2854c-41.1289,18.1421-83.6431,30.5984-128.3755,35.887
		c-21.8982,2.5889-44.002,3.9597-65.7285,2.9077c-28.4833-1.3799-57.2958-2.2073-85.3341-8.7356
		c-4.166-0.9702-9.5051-0.0435-12.2871-4.9863c3.8176-4.177,8.7058-2.219,13.0002-2.1326
		c45.5522,0.9182,90.2819-5.7671,134.9447-13.7102c33.0718-5.8821,64.3176-16.9236,94.6182-31.0518
		c32.6404-15.2188,64.4141-32.05,94.3003-52.1901c33.9319-22.8665,63.2678-50.4561,88.085-83.2852
		c14.0105-18.5342,26.1802-38.5037,42.4417-55.4473c6.3052-6.5696,10.3123-15.4907,14.7581-23.6714
		c13.6733-25.1584,27.2405-50.3792,40.448-75.7839c4.7839-9.2019,3.5679-12.8469-5.4658-17.9189
		c-23.8015-13.3633-47.1946-27.454-72.5088-38.0375c-49.7805-20.8125-99.2874-42.2786-149.0146-63.2195
		c-33.7593-14.2166-67.7451-27.8954-101.5239-42.0656C2142.5142,1639.0864,2135.0229,1637.2289,2131.5344,1629.8419z"/>
	<path d="M430.8065,2913.3716c-5.0375,5.9045-10.0618,4.9404-14.484,5.2747c-51.335,3.8809-102.4945,2.74-153.4517-5.2542
		c-24.3777-3.8247-48.6013-7.8408-71.8008-16.8479c-32.5386-12.6328-62.9534-28.5122-88.9777-52.3127
		c-9.5103-8.6975-17.3644-18.6428-23.8199-29.3557c-10.5923-17.5779-21.2693-35.2571-28.8728-54.449
		c-5.0539-12.7563-4.9694-26.2092-2.8684-39.4302c1.9809-12.4644,4.7715-24.8691,8.1941-37.0217
		c8.8438-31.4019,18.1405-62.678,27.4391-93.9497c5.7013-19.1738,12.8831-37.7761,21.4072-55.9165
		c8.777-18.6782,16.7379-37.7395,25.0822-56.6216c25.1506-56.9138,57.5807-109.5381,93.2609-160.3843
		c55.2522-78.7368,117.4123-151.6597,183.5677-221.3181c23.9099-25.1758,50.5939-47.3201,76.423-70.3915
		c41.2519-36.8474,83.0214-73.0684,128.9451-104.166c25.3661-17.1768,50.5574-34.6177,75.6064-52.2534
		c7.597-5.3484,14.4858-11.7102,21.6421-17.676c5.0795-4.2344,9.7336-9.1135,16.2936-11.072
		c0.8921-0.2664,2.2889,0.8081,3.3057,1.4824c0.4092,0.271,0.6913,1.1997,0.5698,1.7217c-0.441,1.8958-0.5897,4.1406-1.7258,5.5439
		c-4.6028,5.6848-9.0457,11.6426-14.4333,16.5212c-14.7988,13.3997-29.2694,27.1233-42.5779,41.989
		c-20.4912,22.8884-44.6787,41.8196-66.8232,62.9377c-25.0719,23.9097-50.2849,47.645-74.3911,72.5452
		c-25.4814,26.3204-51.2744,52.3383-76.8443,78.5731c-22.8092,23.4026-43.572,48.5881-64.4044,73.7366
		c-51.4844,62.1516-97.4468,128.3782-143.932,194.2192c-5.3457,7.5718-10.1113,15.7324-13.9325,24.1697
		c-14.3256,31.6311-31.0555,61.9839-49.5863,91.2429c-13.3618,21.0979-21.5939,44.1929-30.1377,67.25
		c-10.1765,27.4629-18.2074,55.6519-29.0454,82.9399c-10.1013,25.4329-15.5837,52.1682-14.8444,79.876
		c0.2178,8.1621,2.479,15.7515,5.0496,23.324c0.6366,1.875,1.6797,3.6228,2.627,5.3799
		c28.5316,52.9336,28.5039,52.3101,77.7758,85.6326c25.7023,17.3833,54.1063,27.916,84.3348,35.0798
		c37.6205,8.9148,76.0447,13.5034,113.5713,22.728c5.7192,1.406,11.9384,0.6824,17.9017,1.2156
		C414.7157,2909.0378,422.8147,2908.8398,430.8065,2913.3716z"/>
	<path d="M664.0181,1300.6716c-0.3629-16.6097,0.0953-33.1235,3.3035-49.6532c4.1847-21.5614,7.139-43.3741,10.1997-65.1382
		c3.8268-27.2117,11.6261-53.4353,20.7899-79.123c14.5885-40.8936,32.9456-80.2028,58.2576-115.6641
		c15.0682-21.11,31.7568-41.0994,48.2942-61.1157c19.0807-23.0945,38.8781-45.5952,58.2123-68.4821
		c16.8182-19.9086,35.4595-37.9557,55.7786-54.1903c7.224-5.7721,15.5754-10.1573,23.5537-14.9399
		c1.5907-0.9536,4.2253-1.1975,5.2104,1.0294c0.7018,1.5863,1.0677,4.2596,0.2046,5.4355
		c-3.5188,4.7932-7.2179,9.5588-11.4797,13.6848c-27.4529,26.577-51.1539,56.4388-70.3011,89.1798
		c-24.8628,42.514-51.0472,84.2517-74.0443,127.9371c-20.6172,39.1647-36.9745,79.7606-50.0358,121.7631
		c-17.9277,57.6512-21.476,116.3662-9.1899,175.6787c18.8187,90.85,58.0627,172.6393,111.7272,247.7201
		c28.4264,39.7708,63.5729,73.5018,99.7853,106.0649c17.3251,15.5791,34.5698,31.2412,53.2511,45.2903
		c19.8193,14.9048,40.6688,27.8596,63.6879,37.0997c29.6532,11.9031,58.3159,26.2139,88.6592,36.4336
		c0.6255,0.2104,1.4268,0.4331,1.7439,0.9146c0.6787,1.031,1.3103,2.1897,1.5618,3.3804c0.3206,1.5195-0.6572,2.4375-2.3667,2.4187
		c-7.9688-0.0879-16.0156,0.4663-23.8926-0.4399c-55.2181-6.353-105.5872-26.6001-153.3527-54.1593
		c-5.1766-2.9866-10.26-6.3009-15.7672-8.5181c-19.3804-7.8029-36.4176-19.5726-52.9382-31.8861
		c-26.7108-19.9087-51.7001-41.9849-75.5747-65.2025c-13.8032-13.4232-27.2102-27.3076-38.5225-43.0986
		c-9.301-12.9832-19.5236-25.3049-29.2914-37.9556c-2.4398-3.16-4.9586-6.3036-7.0061-9.7156
		c-26.0726-43.4482-51.0344-87.486-67.6307-135.6306C673.5508,1381.2231,662.8881,1342.0736,664.0181,1300.6716z"/>
	<path d="M3291.3599,2135.1372c37.1621-1.9731,72.8745,6.2427,108.4966,15.1218c61.6475,15.3669,120.397,38.7795,178.373,64.3135
		c37.7998,16.6475,75.4102,33.728,113.3096,50.1445c39.7754,17.2292,80.7178,31.343,122.1738,43.9377
		c26.978,8.1965,54.6074,11.9063,82.835,11.2139c6.6226-0.1626,13.27,0.3271,19.8887,0.7732
		c0.9014,0.0605,2.1772,1.5076,2.415,2.5164c0.2368,1.0032-0.2725,2.8521-1.0522,3.3088
		c-3.4136,1.9993-6.8716,4.3833-10.6304,5.2429c-9.7114,2.2209-19.4658,4.6211-29.5698,4.2871
		c-9.9878-0.3301-19.9756-0.6665-29.9609-1.064c-47.4575-1.8896-93.8354-10.1025-139.7935-22.0259
		c-41.3579-10.73-81.5669-24.6406-121.7393-38.9661c-50.7886-18.1125-100.3271-39.917-152.7749-53.1777
		c-40.0293-10.1204-80.1528-20.4182-121.3403-24.3196c-39.9287-3.782-79.7769-2.4751-119.0874,7.396
		c-21.3706,5.366-42.4946,11.1494-62.5352,20.4402c-7.2732,3.3721-13.8999,7.6018-20.3325,12.4963
		c-18.6213,14.1689-35.3123,30.4583-52.3271,46.3855c-9.7458,9.1228-18.2129,19.4585-25.2271,30.8809
		c-9.1736,14.9382-21.5498,27.0962-34.1609,38.9673c-21.4226,20.1653-48.4243,26.9436-76.4819,30.8462
		c-3.2837,0.4568-6.844-0.3564-9.9487,0.5459c-15.2668,4.4363-25.6572-3.2415-34.6062-13.8469
		c-7.2527-8.5947-16.4456-15.7256-20.76-26.635c-1.8213-4.6052-0.3547-8.2886,4.2446-9.0984
		c9.8374-1.7324,19.7302-3.1523,29.605-4.6699c36.5208-5.613,69.1162-19.2744,95.1125-46.427
		c2.7578-2.8804,5.3579-5.9165,7.95-8.9497c12.1121-14.1711,23.7256-28.8022,36.384-42.4661
		c30.3394-32.749,66.8696-56.8162,108.0415-73.6465c16.666-6.8127,34.6685-9.3132,52.291-12.8635
		C3223.5674,2139.0664,3257.4028,2136.4341,3291.3599,2135.1372z"/>
	<path d="M886.7468,2668.8894c3.764-4.0562,9.1925-4.6982,14.1232-5.6365c26.8098-5.1001,53.3409-13.0183,80.6293-13.9685
		c68.7167-2.3923,137.2372-0.9192,203.3744,21.6504c6.9138,2.3599,13.9148,4.8132,20.3174,8.2598
		c26.3674,14.1956,53.6021,27.0288,78.0664,44.4011c21.1968,15.0518,40.1799,32.8345,56.8303,52.9417
		c4.6711,5.6414,8.9241,11.6799,14,16.9253c12.8271,13.2551,21.5586,28.7935,26.0559,46.5222
		c5.2473,20.6853,14.6956,39.9919,18.9797,61.0105c6.2515,30.6709,5.6936,60.5039-5.1213,90.3911
		c-8.9043,24.6082-20.4551,47.7151-33.6794,70.1157c-4.7703,8.0801-10.4465,14.959-19.6394,19.1108
		c-7.1392,3.2246-13.2517,8.8411-19.593,13.6919c-31.9932,24.4712-68.0989,35.3359-108.2783,33.7053
		c-20.0564-0.8145-39.9927-1.3767-58.2717-11.2727c-4.8015-2.5991-9.0466-0.7656-12.3433,3.2729
		c-5.4788,6.7122-11.1348,13.1831-17.7449,18.8992c-24.2871,21.0015-53.5187,29.4524-84.4587,32.2971
		c-16.4952,1.5166-33.2678,0.2444-49.9072-0.1272c-8.1604-0.1821-16.3506-2.4844-22.1927-7.9456
		c-10.2081-9.5427-19.3026-8.093-30.5172-1.5842c-32.6077,18.925-67.9741,21.6296-104.4662,15.3901
		c-13.4943-2.3071-24.4729-9.0693-35.1672-17.6309c-28.396-22.7324-46.6874-52.6157-62.1047-84.6072
		c-3.9863-8.272-6.7305-17.3882-6.6294-26.8835c0.0198-1.8623,0.8994-4.0132,3.4459-4.1235c1.2683-0.0549,3.1077-0.24,3.7407,0.4741
		c4.8364,5.4548,10.136,10.6772,13.991,16.792c14.8715,23.5894,36.2039,40.5271,57.7117,57.3445
		c2.0914,1.6355,4.5243,2.8274,6.6687,4.4023c27.9795,20.5535,58.2758,24.3242,90.7384,12.627
		c3.1331-1.1287,6.3455-2.0481,9.4399-3.2703c6.3186-2.4961,7.2745-4.8394,4.0344-10.4761
		c-9.9514-17.3118-19.7012-34.7522-30.1635-51.7522c-4.7836-7.7729-6.6102-15.8281-6.3622-24.6326
		c0.0984-3.5007,4.5367-5.6809,7.3593-3.6511c7.645,5.4973,13.8386,12.4736,19.6483,19.7861
		c12.0366,15.1509,25.0701,29.3733,38.9843,42.8196c16.1802,15.636,35.996,25.7249,56.6378,32.8416
		c22.7172,7.8323,46.1996,4.0391,68.2788-4.9375c17.3094-7.0376,33.0565-17.2354,48.7938-27.2556
		c6.1951-3.9441,6.8384-6.5884,2.4656-13.2031c-15.0825-22.8154-29.0205-46.2744-41.0029-70.8677
		c-3.2052-6.5786-6.1788-13.2778-9.0129-20.0247c-0.7517-1.7893-0.5286-4.302,1.5004-5.1765
		c1.6309-0.7029,3.9071-0.7615,5.6312-0.2349c5.3099,1.6204,8.8219,5.9111,12.5437,9.6443
		c19.231,19.2913,41.0559,36.0605,56.9551,58.6079c2.7837,3.9475,7.2773,5.8142,11.6824,7.3523
		c39.238,13.6997,77.9897,17.3198,115.3821-5.8499c3.3955-2.104,6.8291-4.2031,10.4333-5.9055
		c39.113-18.4734,55.2693-51.8342,60.1738-92.5264c2.908-24.1257-1.0298-47.8335-4.6526-71.5208
		c-1.5042-9.8352-3.7639-19.5688-5.9907-29.2776c-6.8376-29.8135-20.8369-56.0127-40.521-79.2725
		c-7.3169-8.646-14.7971-17.1541-22.1018-25.8103c-18.4949-21.9172-42.189-36.6821-68.0559-47.8396
		c-28.7356-12.3953-57.9849-23.6387-88.6567-30.5427c-7.7864-1.7527-15.6089-3.6777-23.5208-4.478
		c-25.1787-2.5476-50.2948-5.7869-75.6564-6.4365c-14.6289-0.3748-29.2307-1.7983-43.8457-2.7317
		c-17.3159-1.106-34.5916-1.3018-51.8816,0.8721c-9.8995,1.2446-19.9072,1.6619-29.8757,2.3049
		C891.4918,2672.0488,888.7765,2672.2725,886.7468,2668.8894z"/>
	<path d="M2051.4351,1739.0524c3.179,2.6105,2.1946,6.0841,1.355,8.95c-4.6748,15.9573-8.5399,32.2827-14.816,47.6079
		c-8.6372,21.0901-24.0625,36.373-45.6335,44.8982c-4.3333,1.7126-8.4902,3.8723-12.821,5.5925
		c-13.7737,5.4717-27.5645,7.6382-42.8303,6.1179c-23.9204-2.3818-44.8259-10.2051-64.8408-23.3669
		c-31.3982-20.6475-59.6384-44.7056-84.9077-72.3433c-23.8359-26.0698-46.9226-52.7797-67.0383-81.9102
		c-7.5872-10.9874-15.8845-21.4158-25.4368-30.7678c-15.8044-15.4733-33.8557-22.2303-56.4048-17.0195
		c-29.835,6.8943-59.958,12.5751-90.0376,18.36c-17.0569,3.2806-34.4517,3.5984-51.7627,3.7617
		c-10.644,0.1006-21.1792-1.3691-31.5413-4.4401c-12.1221-3.5925-24.5208-6.2448-36.7688-9.4226
		c-3.8613-1.0018-7.8367-1.942-11.4001-3.6577c-38.2837-18.4346-72.0432-42.7877-98.0784-76.7915
		c-6.6538-8.6903-8.282-19.8245-9.4858-30.2375c-3.261-28.205-1.2883-55.9193,12.4766-81.6919
		c1.0383-1.9445,2.3005-3.1858,4.4106-3.2925c2.6697-0.1353,3.1992,2.0934,3.3643,3.9489
		c1.0618,11.9297,2.9949,23.9005,2.6873,35.8074c-0.5632,21.786,8.8596,37.9297,24.2456,52.4008
		c25.9985,24.4524,55.8027,43.5796,87.2266,59.3347c47.8276,23.9796,97.9917,28.5864,149.0598,8.7108
		c16.7437-6.5166,33.636-12.5807,51.105-17.1281c18.4465-4.8016,36.7004-5.6478,55.3845-2.0215
		c9.9861,1.9381,11.1394,1.0634,15.2942-8.1161c6.3359-13.9968,11.0854-28.5525,14.1428-43.6125
		c1.9958-9.8337,0.4246-18.476-8.7378-24.5743c-9.7222-6.4709-14.0447-17.5842-21.561-26.0074
		c-4.0574-4.5468-5.0403-10.8552-5.374-16.8989c-1.0801-19.5718-5.1709-38.0531-16.1362-54.8734
		c-5.4568-8.3704-6.9956-18.6324-9.3889-28.3293c-1.8037-7.3096,2.7314-15.1439,11.1018-15.313
		c11.2095-0.2263,22.0278-4.4741,33.5391-3.2473c5.156,0.5494,8.8096,2.1349,11.4756,6.4631
		c5.5681,9.0394,12.731,17.6802,6.666,29.3484c-2.4714,25.5784-1.3386,50.2362,13.2285,73.0172
		c15.1743,23.7307,35.0208,33.0746,62.5918,27.814c22.2119-4.2378,40.8167-15.6588,58.7571-28.597
		c4.9231-3.5504,4.937-9.1877,6.5601-14.1255c1.4009-4.2607,3.824-6.5701,8.4978-6.9648
		c6.1221-0.5171,11.8931-0.5029,17.1011,3.5057c2.6211,2.0175,5.7629,3.342,8.5359,5.1812
		c13.7595,9.1256,14.6843,12.7758,7.8972,27.9055c-1.7795,3.9669-4.6294,6.7015-8.4746,7.8761
		c-5.6895,1.738-11.6841,4.0917-17.4138,3.771c-15.4604-0.8647-29.0085,4.2491-41.5112,12.0994
		c-16.7361,10.5088-34.6526,16.6492-54.2627,18.2493c-2.6306,0.2145-5.2051,1.5259-7.8123,1.5488
		c-10.1475,0.0892-15.6326,5.131-18.217,14.8378c-3.823,14.358-13.052,26.1412-19.812,39.1056
		c-2.4602,4.718-5.1687,9.3137-7.4587,14.1111c-1.4883,3.1177-1.384,6.3597,0.5256,9.5127
		c3.792,6.2617,6.7751,13.1246,11.2322,18.8521c15.9995,20.5585,29.1575,42.9807,43.2661,64.7726
		c10.5305,16.2646,21.8237,31.8723,35.3054,45.8374c17.1194,17.7329,34.1355,35.5658,51.311,53.2438
		c20.5513,21.1526,46.3401,30.4875,75.1292,33.0381c12.9968,1.1511,25.0579-2.7827,37.0811-6.6609
		c2.9512-0.9519,5.4263-3.5996,7.918-5.707c4.5647-3.8606,8.4265-8.9592,13.5718-11.6406
		c10.2585-5.3462,15.5161-14.2961,20.2009-23.9646c4.062-8.3835,7.8633-16.8929,11.9041-25.287
		C2047.0065,1743.7421,2047.7172,1740.2174,2051.4351,1739.0524z"/>
	<path d="M2047.5162,3021.5278c-5.4688,2.4504-6.6409,8.0994-8.8831,12.6809c-14.1521,28.918-32.1431,55.0266-54.8389,77.958
		c-13.2954,13.4333-13.1731,16.9084,1.552,28.0535c16.5354,12.5159,34.5281,22.4377,54.9854,27.3611
		c16.2894,3.9199,32.8336,5.5293,49.4811,5.2805c17.5569-0.2622,34.157-4.3484,48.981-14.5498
		c20.2715-13.9502,40.5552-27.8311,58.8608-44.4001c7.3899-6.6885,15.2634-12.8472,22.9976-19.1482
		c2.5383-2.0684,5.1765-4.2622,8.906-3.1782l-0.5962-0.3872c0.0874,0.6609,0.4797,1.4927,0.2185,1.9578
		c-9.6741,17.2324-15.6399,36.4937-28.335,52.0637c-4.6392,5.6902-9.2876,11.3169-12.0857,18.2397
		c-1.2534,3.1003-0.124,5.5679,2.3569,6.6372c10.396,4.4819,20.8875,8.7683,31.5015,12.7009
		c3.0029,1.1125,6.6689,1.5259,9.8115,0.9856c15.0571-2.5896,29.5715-5.4939,42.0627-16.2769
		c20.6504-17.8264,42.8274-33.8455,60.6406-54.863c4.1277-4.8699,9.9253-8.3245,16.7351-13.884
		c-0.7542,9.0454-3.1685,15.1086-7.0225,20.3389c-12.2913,16.6814-21.4382,35.261-32.4053,52.7334
		c-8.0547,12.8323-29.5259,27.6973-43.9983,32.5044c-15.5339,5.1597-31.2898,5.2375-47.2339,4.7957
		c-5.4026-0.1501-10.3806-1.248-14.9946-4.5688c-8.0977-5.8267-16.9348-10.6694-24.7605-16.8179
		c-6.4561-5.0723-12.9075-6.4172-20.4595-3.9431c-5.6978,1.866-11.4358,3.6191-17.0842,5.6243
		c-30.7537,10.9146-62.124,13.9373-94.3354,7.9878c-27.5875-5.095-51.0382-18.6531-73.2281-34.9646
		c-8.5872-6.3127-17.251-12.521-25.8645-18.7979c-5.3884-3.9265-10.9402-4.1714-16.9077-1.2549
		c-7.7773,3.8018-15.7778,7.1543-23.491,11.0767c-6.8005,3.4583-14.0415,4.9583-21.3306,3.8147
		c-26.9944-4.2344-53.947-8.8381-78.9316-20.7761c-2.397-1.1458-4.9016-2.2102-7.0237-3.7661
		c-24.7878-18.1724-48.6482-37.3152-65.3425-63.7859c-1.7766-2.8174-3.0745-6.1531-5.4312-8.3518
		c-10.8904-10.1597-13.7783-24.0542-17.7529-37.3655c-1.6948-5.6763-2.0215-11.6558-4.4741-17.2954
		c-3.0532-7.02-1.5498-14.6814,0.5-21.6104c2.707-9.1511,2.6409-18.1782,2.697-27.5522
		c0.1089-18.2378,5.5625-35.6257,13.6196-51.7632c20.0249-40.1052,43.0786-77.9724,77.7727-107.8235
		c22.3459-19.2266,46.1497-36.0908,71.145-51.4792c1.7-1.0466,3.3452-2.4324,5.21-2.9219
		c20.7395-5.4446,39.7241-14.8513,58.3662-25.1724c3.3511-1.855,7.5796-2.1199,11.3977-3.1375
		c7.7139-2.0559,15.9456-3.0244,23.0413-6.3877c24.4902-11.6086,51.0425-14.9795,77.0675-20.3562
		c51.4048-10.6208,103.3416-9.543,155.2888-5.613c14.5813,1.103,29.0735,3.5686,43.5479,5.7922
		c4.5461,0.6982,8.9504,2.5122,13.3032,4.1279c0.9763,0.3621,1.7214,1.9441,2.1277,3.1187
		c0.7983,2.3066-0.7358,3.9121-2.4788,4.8008c-7.1567,3.6484-14.6658,6.4404-22.7329,7.0508
		c-21.2595,1.6096-42.5156,3.3889-63.8057,4.4385c-27.2729,1.345-54.6116,1.4829-81.8601,3.1536
		c-37.9333,2.3257-75.6166,6.9175-112.5695,16.2686c-4.512,1.1423-9.3352,1.7485-13.4131,3.7986
		c-27.3042,13.7283-55.751,25.1221-80.9526,43.0698c-24.575,17.5015-46.5662,37.676-67.6533,59.04
		c-17.0701,17.2942-29.9927,37.4028-39.8586,59.4368c-3.2329,7.2205-4.6724,15.2412-6.9644,22.8862
		c-11.5906,38.6614-7.262,76.4856,6.658,113.5559c5.9402,15.8188,17.1089,28.5129,28.3364,40.7922
		c11.76,12.8618,26.1797,22.6101,40.7703,32.0034c5.0984,3.2825,10.7559,5.1711,16.6489,6.5552
		c11.7642,2.7622,23.6807,3.4258,35.7205,3.574c8.9692,0.1104,17.0791-1.1997,24.1184-7.4048
		c3.4561-3.0469,7.6216-5.4065,11.7302-7.5779c32.7026-17.2817,61.3208-39.9707,87.665-65.7271
		c4.2837-4.188,8.8809-8.0574,13.365-12.0381c2.8655-2.5439,6.1108-2.031,9.387-1.0151L2047.5162,3021.5278z"/>
	<path d="M1053.135,602.9521c-1.52,25.9384-2.8955,51.8867-4.6536,77.809c-0.4891,7.2136-0.7135,14.7216-5.5869,20.8812
		c-1.3284,1.6791-5.6426,1.7722-7.0859,0.2733c-3.4312-3.5632-4.49-8.2342-5.4388-12.6895
		c-3.3269-15.6227-7.3085-31.2182-9.0642-47.0433c-6.2574-56.4029-6.6982-112.7739-2.2771-169.5393
		c3.5568-45.666,18.9321-86.8618,36.875-127.8453c7.7469-17.6948,15.1782-35.5286,22.6791-53.3303
		c20.2975-48.1722,46.0038-93.1517,79.2611-133.6095c33.4707-40.7173,70.531-77.9884,109.6443-113.2579
		c0.9895-0.8924,2.0103-1.7502,2.9961-2.6464c6.1489-5.5892,12.7012-6.6354,20.0388-2.1979
		c9.1104,5.5093,18.6492,10.2853,26.7715,17.3771c21.0767,18.4031,42.1738,36.7779,61.7437,56.813
		c11.6987,11.9771,21.7354,25.1721,29.7439,39.9426c18.7715,34.6212,34.9009,70.4831,48.5579,107.3497
		c10.4385,28.1772,16.0386,57.6856,19.7507,87.545c2.3826,19.1606,5.2126,38.2883,8.6096,57.2935
		c3.071,17.1797,10.3179,33.0212,17.968,48.5944c13.2153,26.9027,26.5889,53.7276,39.8894,80.5886
		c6.5581,13.2441,16.179,24.3925,24.7832,36.2347c7.439,10.2382,14.979,20.4033,22.3899,30.6617
		c1.5891,2.1995,2.5183,4.7756,1.1069,7.442c-1.8411,3.4775-5.2488,4.1035-8.5664,3.4775
		c-21.8047-4.1137-40.4282-14.2117-53.1201-32.5566c-17.7939-25.7189-35.8093-51.4389-47.9973-80.5215
		c-21.6777-51.7255-40.8582-104.2387-48.2029-160.2658c-7.0298-53.6216-26.3335-102.9825-51.2263-150.5372
		c-13.6885-26.15-29.3093-50.7831-51.1482-70.9822c-8.8037-8.1425-17.5979-16.3091-26.6963-24.1153
		c-12.2412-10.5027-16.3428-11.2241-29.9895-1.7921c-9.7385,6.7307-18.5972,14.9614-26.9797,23.3871
		c-34.498,34.6759-61.814,74.9954-88.929,115.3685c-12.9883,19.3392-24.5396,39.6422-36.7888,59.4796
		c-13.3616,21.6394-24.105,44.4768-31.6558,68.7852c-16.4309,52.8958-31.1462,106.2267-35.2858,161.7331
		c-1.6819,22.5516-1.2124,45.2645-1.6815,67.9049c-0.0966,4.6599-0.0139,9.3235-0.0139,13.9855
		C1053.4156,602.9502,1053.2754,602.9512,1053.135,602.9521z"/>
	<path d="M2558.4858,2243.981c3.9619-3.5972,7.3411-0.3879,10.6111,1.1628c24.1487,11.4519,46.7029,25.7156,68.8115,40.5664
		c42.0378,28.2385,84.5784,55.6675,127.6707,82.262c27.2251,16.802,53.4673,35.0686,79.126,54.1777
		c39.5247,29.4353,79.3943,58.4192,118.5203,88.3745c24.2961,18.6018,48.4141,37.47,69.8257,59.6338
		c31.5955,32.7051,53.7896,70.9407,69.5569,113.2161c2.0852,5.5906,3.2512,11.5242,4.8389,17.3
		c5.2273,19.0166,1.7515,35.7246-8.4746,53.1709c-32.3057,55.1155-76.1299,99.2397-127.0508,136.5344
		c-37.8408,27.7146-79.675,48.3354-124.8567,61.5493c-19.8042,5.7917-39.7908,10.9919-59.8003,16.0417
		c-19.4961,4.9207-39.5913,4.908-59.5063,6.2134c-0.8225,0.054-2.2861-1.3684-2.4846-2.3071
		c-0.2244-1.063,0.3018-3.0676,1.0859-3.4429c13.2029-6.3245,26.1602-13.3606,39.8323-18.4729
		c50.8213-19.0017,98.5715-43.5474,142.9651-74.8872c25.6382-18.0996,51.0862-36.2227,72.2065-59.6907
		c24.145-26.8289,41.3647-57.0432,45.7761-93.5432c2.7195-22.5007-0.593-43.853-12.1333-63.5872
		c-16.5034-28.2214-34.0308-55.9458-55.5042-80.5288c-19.2148-21.9973-39.2141-43.4956-61.9272-62.2224
		c-24.1504-19.9121-47.8633-40.3579-71.6501-60.7078c-30.9106-26.4436-63.7324-50.3647-96.7542-74.0498
		c-14.0586-10.0837-27.5811-20.9124-41.5149-31.1743c-22.521-16.5852-44.9453-33.3176-67.8486-49.3625
		c-21.9556-15.3804-41.1423-33.762-59.8804-52.7153C2559.1145,2246.6704,2558.9629,2245.1963,2558.4858,2243.981z"/>
	<path d="M2779.8796,696.3216c-47.2627,2.2542-94.6057,3.2988-141.3589,11.4219c-58.4731,10.1597-116.5266,22.0944-172.2212,43.3413
		c-25.5935,9.7635-49.4998,23.0762-73.7405,35.61c-23.6624,12.235-46.728,25.6212-70.1177,38.3884
		c-5.2402,2.8606-10.6497,5.4694-16.1782,7.7067c-1.4807,0.5994-3.9805-0.13-5.4993-1.0746
		c-2.6821-1.6677-2.2705-4.5331-1.4453-7.1488c1.6597-5.2603,5.1484-9.3508,9.1021-12.9426
		c9.3594-8.5028,18.3594-17.5339,28.4678-25.0571c47.7168-35.5121,98.0535-66.5877,153.2612-89.3658
		c31.0522-12.8117,63.6931-19.2771,96.46-25.2476c28.8701-5.2604,58.0957-7.5461,87.3477-9.8455
		c35.9067-2.8224,71.821-4.504,107.8101-4.0556c32.6416,0.4066,65.2424,1.5909,97.5271,7.4097
		c10.0134,1.8047,19.2891,5.2881,28.3228,9.4484c16.0654,7.3987,22.551,21.5577,20.4146,39.1973
		c-6.5728,54.2671-16.241,108.0087-27.376,161.4718c-10.24,49.1654-26.907,96.0509-52.177,139.7489
		c-26.5576,45.9244-59.2107,86.9086-97.8406,123.1687c-33.687,31.6202-70.7908,58.4989-111.5879,80.3009
		c-10.7693,5.7551-22.512,8.0333-33.9736,11.4304c-7.0696,2.0955-13.0239-1.5579-19.2427-3.6144
		c-4.3186-1.4282-5.2776-5.9031-2.4585-9.5281c4.5781-5.8872,10.6392-10.062,16.7346-14.0994
		c23.321-15.4469,46.7371-30.7512,70.1238-46.0991c3.8943-2.5555,8.1248-4.697,11.6794-7.655
		c16.8906-14.0558,33.9019-27.9904,50.3086-42.5988c27.7102-24.6729,48.5149-54.7062,65.4939-87.4547
		c16.8943-32.5859,29.8472-66.863,43.1453-101.0166c8.9775-23.0573,15.7058-46.6107,21.2273-70.6895
		c5.8025-25.304,13.209-50.2357,19.5139-75.4304c3.0679-12.2612,5.2449-24.7465,7.7874-37.1379
		c4.2441-20.6865-6.4514-36.0157-27.6113-37.2768c-21.9187-1.3064-43.9373-0.9573-65.9126-1.2939
		C2790.5381,696.2521,2785.2085,696.3216,2779.8796,696.3216z"/>
	<path d="M1817.6654,502.9877c-1.5032,35.0337-2.5137,71.6831-7.7776,108.0413c-0.3804,2.6266-0.6809,5.326-0.5,7.9559
		c0.1934,2.8193,1.8662,4.958,4.7505,5.626c1.9207,0.4448,3.9456,0.7344,5.9077,0.6609
		c42.4304-1.5901,83.6262,5.7813,124.3291,16.9111c45.1182,12.337,88.9871,27.6972,130.0006,50.7077
		c22.2224,12.4678,42.8938,26.9992,61.8259,43.8434c17.0881,15.2037,17.4558,11.357,25.2065-4.1038
		c19.4709-38.84,42.593-75.4057,68.3589-110.3261c19.4006-26.2938,40.3486-51.3486,61.7563-76.0161
		c2.1243-2.4476,4.9832-4.3315,7.7354-6.1156c0.835-0.5415,2.7664-0.2827,3.6338,0.3636c0.8918,0.6645,1.5303,2.2505,1.53,3.4331
		c-0.0015,6.4149-4.0479,11.1398-7.304,16.0871c-17.5874,26.7236-35.0625,53.5267-53.074,79.9635
		c-8.2747,12.1457-15.9666,24.5737-22.8271,37.5385c-14.334,27.0873-28.6196,54.2003-42.9116,81.3098
		c-0.9316,1.767-1.8271,3.5608-2.6082,5.3979c-3.2209,7.5793-2.887,10.2477,3.8635,15.3068
		c14.1487,10.6031,23.7537,25.0415,33.8857,39.0532c1.5259,2.1096,2.7314,4.6464,3.345,7.1656
		c0.6272,2.5758,0.3145,5.5835-2.239,7.1407c-1.5122,0.9222-3.8191,1.4937-5.4727,1.0692
		c-7.925-2.0343-14.2949-6.6448-20.2512-12.2343c-7.3181-6.8672-15.3391-12.7808-25.7407-14.5197
		c-4.6177-0.7717-7.9001,0.3798-9.6782,4.6752c-6.6255,16.006-13.1816,32.041-19.6929,48.0939
		c-16.0264,39.5098-31.978,79.05-48.0662,118.5345c-1.7397,4.2697-4.0576,8.3265-6.4114,12.3024
		c-0.4302,0.7264-2.4736,1.0334-3.5151,0.7087c-1.0002-0.3118-2.2627-1.6302-2.3704-2.6196
		c-0.3579-3.2854-0.6406-6.6689-0.2502-9.9307c1.8208-15.2051,3.3999-30.459,7.5442-45.2845
		c12.2139-43.6963,26.6536-86.5306,46.1011-127.675c9.1382-19.3335,14.3391-18.7649-9.905-37.2385
		c-39.0869-29.7841-83.2299-49.9958-128.1078-68.973c-30.7322-12.9956-62.3757-23.4285-93.9272-34.1321
		c-13.9263-4.7244-28.2002-7.804-42.9202-9.1022c-12.5886-1.1104-25.0759-3.335-37.6516-4.6467
		c-7.7522-0.8086-11.0156,1.6342-12.8955,9.2708c-2.3879,9.6989-4.3179,19.5101-6.4717,29.2671
		c-5.4851,24.8479-16.4553,47.8198-24.5649,71.7704c-9.863,29.1279-22.5024,57.005-37.969,83.575
		c-2.6438,4.5421-6.0496,8.6639-9.3599,12.7733c-0.5908,0.7338-2.6616,0.9393-3.6477,0.496
		c-0.905-0.4069-1.7849-2.0167-1.7896-3.1003c-0.0435-10.1445,3.1069-19.6844,6.0176-29.2241
		c10.3101-33.7891,21.896-67.145,34.949-99.9702c8.9009-22.384,15.3599-45.4364,19.9187-69.0379
		c1.4951-7.742-0.2971-10.0765-7.762-10.2737c-11.9905-0.3167-23.9922-0.2161-35.989-0.2728
		c-3.3228-0.0157-6.6592,0.228-9.9646-0.0027c-2.7114-0.1892-5.4792-1.1968-6.1519-4.1485
		c-0.9619-4.2203,2.3628-6.1654,5.4731-6.7884c11.7412-2.3519,23.5212-4.6825,35.3931-6.1718
		c23.0024-2.8857,21.624-2.1447,24.0134-23.4573c5.7915-51.6566,11.0303-103.375,16.7856-155.0358
		c1.4739-13.2297,3.864-26.3696,6.2317-39.4788c0.5586-3.0928,2.4277-6.1024,4.2566-8.7632
		c1.4402-2.0955,4.0139-1.0384,4.9631,0.5292c3.2461,5.3605,2.9443,11.5399,2.8967,17.494
		c-0.1924,23.996-0.5889,47.9902-0.9001,71.9853C1817.6356,496.0606,1817.6654,498.7265,1817.6654,502.9877z"/>
	<path d="M1556.1351,895.073c27.4207-1.943,52.9824,4.2017,76.6987,17.9176c12.6755,7.3306,25.1809,14.965,37.6213,22.6902
		c19.0225,11.8127,26.9812,30.675,31.1252,51.3602c2.7739,13.8451,1.449,28.0134-1.5886,41.705
		c-4.7561,21.4355-10.5127,42.6471-15.6501,64.0006c-3.2886,13.6677-8.3042,26.5914-15.2603,38.8037
		c-0.9709,1.7046-1.5391,3.7312-3.7324,3.8336c-2.4714,0.1154-3.2207-2.0267-3.7261-3.9387
		c-2.5503-9.6414-4.6199-19.4304-7.6252-28.9247c-2.6643-8.417-5.6428-9.9788-13.3286-5.9695
		c-12.9116,6.735-26.3958,8.625-40.6365,7.8065c-18.1565-1.0433-31.5349-9.7601-40.6545-25.1315
		c-8.2634-13.9281-11.8091-29.7145-15.6145-45.1332c-2.2188-8.9894,0.4399-18.6411,5.9482-26.6233
		c2.9951-4.3407,6.6321-8.3436,10.4915-11.9512c3.3777-3.1573,7.4282-5.6105,11.2554-8.2687
		c20.3533-14.1368,41.96-23.0815,67.4246-16.4364c1.7576,0.4585,3.96-0.0189,5.7227-0.6809
		c0.863-0.3242,1.7515-2.1234,1.6587-3.1687c-0.3076-3.4683-2.3901-6.1094-4.8838-8.4143
		c-12.3552-11.4205-25.7979-20.9384-42.3147-25.5929c-14.1025-3.9745-28.0769-8.2673-42.7012-10.1493
		c-16.8511-2.1686-33.2639-0.6824-49.2429,4.8942c-23.4158,8.1715-45.7947,18.3094-64.1003,35.6882
		c-2.8894,2.7433-5.8059,5.5046-8.3416,8.5632c-4.1741,5.035-4.9927,9.8489-1.0815,16.2006
		c19.8865,32.2946,39.2339,64.921,58.7842,97.4227c3.0735,5.1095,6.791,9.8931,7.27,16.1954
		c0.2454,3.23-3.7612,6.3152-6.7959,5.0306c-1.2168-0.515-2.4846-0.9794-3.584-1.691
		c-34.9937-22.6519-62.9202-51.1563-76.4761-91.7377c-4.6433-13.901-9.498-27.7059-12.2314-42.1613
		c-2.0642-10.9156,0.1182-19.0526,11.0898-24.7599c21.2419-11.0497,41.6726-23.6573,62.9026-34.7308
		c16.6865-8.7037,34.9683-12.8182,53.6748-14.6499C1537.5096,896.1632,1546.8326,895.7244,1556.1351,895.073z"/>
	<path d="M2110.7883,1334.1931c-10.5408-0.2976-20.2102-2.4619-28.811-6.808c-14.2305-7.1908-28.1973-15.0778-40.2462-25.8107
		c-5.0132-4.4658-9.1526-9.5449-12.5867-15.3741c-4.8247-8.1897-4.8958-15.7943-0.7554-24.5347
		c15.7114-33.1671,37.7926-61.7517,67.1263-83.0671c22.519-16.3633,48.8057-26.9139,77.8494-27.0742
		c8.0029-0.0442,16.0435-0.4907,23.8352,1.6969c14.0496,3.9448,27.8025,7.7633,38.2402,19.7002
		c7.8037,8.9246,18.2288,15.4999,26.9685,23.6749c18.3682,17.1816,31.1875,37.9637,38.1836,62.1577
		c1.4619,5.0555,2.5188,10.4546,2.4675,15.6826c-0.2356,23.9595-0.8716,47.916-1.4995,71.8701
		c-0.1724,6.5688,0.4583,15.3433-6.5876,17.2963c-8.9619,2.4841-12.0144-7.001-15.0913-13.1804
		c-4.125-8.2854-6.6294-17.3674-10.0237-26.0314c-1.9346-4.9381-4.7419-6.0868-9.2922-3.4673
		c-12.7185,7.3215-25.4036,14.7374-39.7415,18.4529c-19.2034,4.9764-38.1682,5.3754-56.1653-4.6088
		c-11.2041-6.2155-17.4727-15.7524-19.7639-28.4457c-4.6169-25.5797-0.4109-48.5258,16.3015-69.3705
		c7.8901-9.8407,14.1506-21.0011,24.7024-28.4154c8.7305-6.1345,17.6941-11.8907,28.8015-13.0334
		c3.2551-0.3348,6.9893-1.4618,7.9792-5.0809c1.2927-4.7267-2.9021-6.8436-5.7314-9.4611c-0.4839-0.4475-1.042-0.8584-1.6353-1.1376
		c-21.478-10.1057-43.3198-17.0094-67.3933-9.547c-17.5635,5.4442-32.6484,14.0277-44.9299,28.2318
		c-15.7483,18.2136-27.947,38.9152-42.5876,57.8737c-4.2566,5.5117-2.821,11.1002,1.0159,16.5485
		c14.1765,20.129,27.5229,40.9207,46.8979,56.7625C2109.25,1330.4568,2109.5889,1331.9487,2110.7883,1334.1931z"/>
	<path d="M1559.9904,2825.5586c-0.0417-1.8667-0.8323-4.8569,0.0005-5.4119c4.4087-2.9385,9.1628-5.3887,13.9111-7.7815
		c27.3633-13.792,54.7383-27.5618,82.1504-41.2566c19.6636-9.8232,39.4397-19.4209,59.0723-29.3047
		c11.2939-5.6858,22.5786-11.4312,33.5576-17.6926c26.043-14.8518,51.8816-30.0613,77.8391-45.0627
		c28.8962-16.7004,56.1982-35.7317,82.6133-56.0881c22.6931-17.4885,45.3201-35.0686,68.2661-52.2209
		c26.7981-20.0317,49.6204-44.2998,73.6198-67.3704c41.2817-39.6836,67.6067-88.7036,89.8066-140.4519
		c3.6748-8.5662,6.7136-17.4031,10.2566-26.0286c7.6094-18.5261,14.0393-37.3633,17.1414-57.2625
		c1.1235-7.2087,3.1768-14.2896,5.126-21.3401c0.446-1.6138,1.9905-3.7061,3.4236-4.0845c2.2595-0.5969,3.3525,1.74,3.5159,3.6917
		c3.9333,47.0378,1.7766,93.085-19.1316,136.8218c-16.1936,33.8752-36.8679,64.7722-59.104,94.8008
		c-23.501,31.7361-51.0911,59.679-79.8146,86.5808c-21.4512,20.0903-44.9358,37.7026-68.7588,54.7712
		c-41.7329,29.9011-85.4241,56.7568-130.4749,81.3894c-4.6741,2.5557-9.3809,5.0979-13.8208,8.0276
		c-53.2966,35.1716-111.7798,58.9001-172.1211,78.7188c-25.8557,8.4919-52.6438,14.3513-77.1899,26.6511L1559.9904,2825.5586z"/>
	<path d="M1595.4767,2055.5161c-30.6897-0.1958-60.9326-4.9712-91.2256-9.099c-5.2061-0.7092-10.1772-3.0505-15.3015-4.4775
		c-7.6694-2.1365-15.2729-5.1826-23.0925-5.9639c-15.7263-1.5713-29.6899-7.5635-42.7751-15.575
		c-21.5588-13.1995-42.9402-26.7312-63.8882-40.8755c-23.241-15.6926-44.6682-33.6113-61.3672-56.4792
		c-10.8657-14.8794-16.8098-31.6091-17.4951-50.0908c-0.0461-1.2485,0.4451-3.4834,1.0325-3.6064
		c1.7185-0.3596,4.2502-0.5947,5.3372,0.3787c9.4014,8.4211,19.0283,16.6733,27.6594,25.8499
		c10.188,10.832,21.627,19.3445,35.0215,25.9324c33.439,16.4463,66.5125,33.6357,99.7273,50.5364
		c3.5574,1.8098,6.907,4.219,10.6497,5.4434c39.9155,13.0542,80.1182,24.6794,122.616,25.5398
		c33.3337,0.675,66.5107-1.8271,99.7229-3.946c21.2134-1.3538,42.6445-0.2217,63.4158-6.2388
		c2.4741-0.717,5.3926-0.7622,7.897-0.197c1.5869,0.3582,3.531,2.2217,3.9558,3.7805c0.4331,1.5908-0.376,3.9309-1.4126,5.3984
		c-1.0798,1.5286-2.9639,2.6309-4.6965,3.5359c-22.3806,11.6902-44.103,24.8127-69.0278,30.8984
		c-6.4302,1.5698-12.9326,3.533-18.8328,6.4619C1641.8951,2053.396,1619.0948,2056.4524,1595.4767,2055.5161z"/>
	<path d="M2539.4685,2996.5647c1.0959-16.6492,0.9207-33.2473-1.1707-49.8433c-3.5417-28.1064-13.1431-54.0911-25.5178-79.3381
		c-3.5298-7.2014-10.1169-14.4016-4.3948-23.563c8.7764,1.3657,13.0298,8.5588,17.6348,14.646
		c18.4824,24.4312,35.6055,49.5952,48.5066,77.73c8.3242,18.1523,18.1213,35.5742,22.7646,55.1692
		c6.1843,26.0977,9.8567,52.3127,2.8186,78.9348c-2.0405,7.718-4.0654,15.5098-5.1418,23.3979
		c-2.0605,15.1018-9.2888,27.6082-18.3389,39.3235c-2.8462,3.6833-6.2175,6.9604-9.0659,10.6421
		c-36.0918,46.6445-49.3633,46.873-110.9568,63.2256c-22.5154,0.3809-45.1396,3.5078-67.1675-4.6855
		c-9.9453-3.699-20.4338-5.9292-30.6519-8.9082c-2.5862-0.7537-5.3596-2.1799-5.1218-5.1292
		c0.3184-3.948,3.8516-5.457,7.2002-5.4265c3.9121,0.0354,7.7991,1.2693,11.7256,1.7495c4.5852,0.5608,9.3965,1.9268,13.7732,1.1191
		c32.9961-6.0898,65.241-14.0146,89.5945-39.7979c6.3879-6.7634,13.5452-12.7942,20.2312-19.2832
		c26.5371-25.7542,40.3091-57.5054,43.1335-94.0344C2540.2444,3020.5845,2539.4685,3008.5447,2539.4685,2996.5647z"/>
	<path d="M707.1471,3148.3657c-13.7169,10.2253-25.0964,14.7964-39.3772,15.3945c-17.4574,0.7314-34.5029-1.8472-51.1176-7.165
		c-10.2594-3.2839-19.3722-8.6084-27.533-15.7017c-16.1404-14.0288-30.7091-29.5461-43.0826-46.9377
		c-15.9818-22.4634-22.3127-48.3545-22.3146-75.3572c-0.0016-24.5059,0.0443-49.1465,6.2422-73.3301
		c2.8241-11.0193,6.1072-21.6755,10.7954-32.0032c16.266-35.8313,34.9535-70.1946,60.2142-100.6343
		c2.5057-3.0198,5.0449-6.0112,7.4834-8.9143c4.9105,2.1362,1.687,4.3782,0.8671,6.0708
		c-8.6923,17.9409-18.1353,35.5444-26.1724,53.7698c-13.2389,30.0217-22.1633,61.2227-22.3757,94.4358
		c-0.0769,12.0208,0.4718,23.855,3.891,35.5413c3.1709,10.8374,5.8646,21.8511,8.0717,32.9263
		c4.8823,24.4988,17.847,44.2427,35.8573,60.7444c12.7352,11.6689,26.3417,22.397,39.7043,33.3684
		c13.1145,10.7678,28.6985,16.5505,44.6381,21.5635C697.8772,3143.6899,703.7003,3143.3386,707.1471,3148.3657z"/>
	<path d="M1497.8456,1326.3549c-5.7249,1.4258-10.4177-1.39-15.0425-3.9308c-18.0383-9.9105-36.1208-19.7518-53.9512-30.0281
		c-29.5342-17.0216-61.2534-29.1913-92.6362-42.0719c-81.4473-33.4286-165.655-58.3804-250.9054-79.7645
		c-64.7677-16.2462-130.9189-23.5249-197.5206-27.2599c-9.1827-0.5151-19.8593,3.2496-27.326-6.0072
		c7.3945-7.1257,17.2013-6.2766,26.1924-7.4617c43.88-5.7839,87.7299-3.7115,131.3788,2.2913
		c36.2533,4.9858,72.3375,11.1893,108.5298,16.6333c23.8772,3.5914,46.3499,12.0933,69.0186,19.7076
		c50.4875,16.958,99.9063,36.811,148.9424,57.5381c28.344,11.9807,53.5798,29.5808,78.6592,47.1511
		c18.5024,12.9625,36.2781,26.96,55.7861,38.4691c6.9124,4.0781,13.1802,8.9849,18.3457,15.1965L1497.8456,1326.3549z"/>
	<path d="M1367.4901,2170.0562c6.4282,17.6753,9.1279,36.1125,12.1465,54.3601c7.6855,46.4602,5.9775,93.0371-1.3882,139.2959
		c-4.9302,30.9624-13.3682,61.1758-27.6604,89.3672c-8.4329,16.6335-16.958,33.239-26.0742,49.5024
		c-11.501,20.5168-27.1492,37.7983-44.2468,53.782c-1.2937,1.2092-4.0645,2.4614-5.2161,1.8721
		c-2.6438-1.3525-2.2891-4.4998-1.4629-6.918c2.7976-8.1858,5.6565-16.3628,8.866-24.3938
		c14.5835-36.4951,29.228-72.9373,39.9863-110.8403c12.2139-43.0305,20.1477-86.8545,26.9634-131.0005
		c5.1914-33.6252,7.4294-67.5054,11.1787-101.2502C1361.1227,2178.9685,1359.8187,2172.7852,1367.4901,2170.0562z"/>
	<path d="M1448.2511,1236.3728c-1.1482,1.0792-2.1382,2.6597-2.8147,2.535c-3.2075-0.5905-6.5977-1.1317-9.4409-2.6143
		c-35.4148-18.4668-70.425-37.6831-104.0273-59.3042c-18.4644-11.8807-36.1172-25.0302-54.6648-36.7719
		c-33.9463-21.49-63.7969-47.7769-92.6616-75.5209c-25.4866-24.4973-49.1765-50.5543-71.8577-77.5753
		c-12.001-14.2975-21.528-30.3578-31.4071-46.1538c-6.4766-10.356-7.765-22.5018-12.1936-33.551
		c-0.3416-0.8521,0.5331-2.9089,1.3763-3.3254c0.9286-0.459,2.9426-0.1151,3.6713,0.6514
		c3.6421,3.8314,7.1532,7.8073,10.4656,11.929c30.0367,37.3767,61.6595,73.3456,95.1195,107.7004
		c35.8818,36.8417,75.4216,69.3815,117.5088,98.7701c26.7856,18.704,52.2043,39.1073,77.5415,59.631
		c14.0129,11.3506,28.6919,21.5632,44.2314,30.6766c9.1599,5.3719,18.5903,10.4858,26.2546,18.0471
		C1446.6742,1232.8005,1447.3302,1234.7794,1448.2511,1236.3728z"/>
	<path d="M1459.025,1363.0402c-0.9927,0.7299-2.1165,2.209-2.959,2.0634c-5.2095-0.9005-10.4324-1.8992-15.5103-3.3556
		c-31.3623-8.9946-62.6436-18.2079-94.8003-24.1886c-11.8481-2.2036-23.6409-3.5886-35.6501-4.0588
		c-76.1548-2.9811-151.7742,3.1805-227.0009,14.197c-44.823,6.5641-89.1167,16.0591-132.1652,30.6346
		c-5.0076,1.6954-10.236,2.7798-15.4213,3.8634c-0.73,0.1527-1.9215-1.223-2.6495-2.099c-0.266-0.3199-0.0327-1.5487,0.361-1.8422
		c2.6324-1.9628,5.147-4.3014,8.1055-5.576c60.1597-25.92,121.6216-46.9951,187.3756-53.9119
		c28.5002-2.9982,57.1028-4.2871,85.5808-7.2512c2.6392-0.2747,5.3308-0.3031,7.9829-0.1621
		c53.2075,2.8273,106.3928,5.8408,158.6841,17.1849c18.9543,4.1118,37.1602,10.5045,54.9949,17.9512
		c7.948,3.3186,15.9631,6.7635,22.3098,12.9817C1459.3978,1360.5828,1459.8129,1361.6072,1459.025,1363.0402z"/>
	<path d="M1436.3268,594.1503c-3.5808,39.3461-21.1438,71.4943-68.0313,85.5181c-6.9639,2.0828-14.2905,3.0768-21.5127,4.1472
		c-24.9871,3.7026-50.0249,7.0657-75.0002,10.8443c-25.0693,3.7928-49.4028,10.3613-72.8635,20.1038
		c-4.8723,2.0231-9.981,3.5859-15.1133,4.8016c-1.3889,0.329-4.3091-1.0834-4.6477-2.2449
		c-0.4197-1.4372,0.6157-4.1015,1.9023-5.0867c4.2046-3.2192,8.6338-6.2418,13.2942-8.7496
		c11.1189-5.9831,22.4104-11.6453,33.6479-17.407c19.8916-10.199,41.1038-14.5996,63.3721-15.4813
		c24.6541-0.9761,48.8381-4.1747,71.4829-15.527c17.2563-8.651,30.9993-20.6529,40.3157-37.3182
		c6.2151-11.1175,14.4285-20.6658,21.7241-30.9326c1.6897-2.3781,4.28-3.723,6.8462-2.9852
		C1435.3077,584.8573,1436.5538,588.0764,1436.3268,594.1503z"/>
	<path d="M2088.5,1672.8898c1.9102,0,3.991-0.5442,5.6245,0.0807c28.6069,10.9448,56.9082,22.4675,82.8452,39.1731
		c28.2249,18.1791,48.824,42.9196,63.947,72.4823c10.626,20.771,19.3923,42.3455,26.3823,64.6267
		c5.6309,17.949,8.093,36.3176,7.314,55.0994c-0.0417,1.0042-1.3125,2.3674-2.3279,2.7756
		c-0.6704,0.2693-2.4905-0.6375-2.8059-1.4177c-5.9805-14.8018-12.408-29.4612-17.5486-44.5566
		c-9.5273-27.9778-23.7295-53.4998-39.853-77.9958c-19.6851-29.9071-45.739-53.5192-75.2637-73.4122
		c-13.2412-8.9216-26.8413-17.3099-40.1177-26.1804C2093.0825,1681.1503,2088.2063,1679.347,2088.5,1672.8898z"/>
	<path d="M2272.3904,1510.5361c-37.3716,2.0016-74.4565-1.7576-111.5347-5.6052c-3.9685-0.4117-8.1511-0.3898-11.8262-1.7079
		c-12.811-4.5951-26.0549-5.0588-39.4019-5.1038c-2.6626-0.0089-5.3364-0.0289-7.9841-0.2731
		c-5.1804-0.4777-8.2363-3.1396-8.0784-6.9071c0.2092-5.0004,4.0247-7.0315,7.8865-7.4568
		c7.9094-0.8713,15.9373-1.2954,23.8857-1.0187c9.302,0.3236,18.6675,1.0173,27.8362,2.5579
		c24.4016,4.1005,48.9692,5.0306,73.6355,5.3726c14.623,0.2026,29.2542,0.153,43.8569,2.2097
		c9.1646,1.2909,18.6677,1.3783,27.9141,0.6578c25.2898-1.9705,50.5854-1.0846,75.8823-1.1818
		c14.0042-0.0537,27.9282-1.1172,41.7996-3.184c7.2244-1.0763,14.5601-1.4403,21.856-1.9868
		c2.5925-0.1941,5.1838-0.025,6.8518,2.6031c1.2695,1.9998-1.6011,5.1849-6.0256,6.2206
		c-26.623,6.231-53.4783,10.6925-80.8938,11.6534c-16.5991,0.5817-33.1543,2.3589-49.7524,3.0526
		C2296.3484,1510.9384,2284.3608,1510.5361,2272.3904,1510.5361z"/>
	<path d="M1986.1322,1441.2148c0.1147,10.6793-0.3083,21.2897-5.0271,31.193c-1.1406,2.3936-1.8257,5.1475-3.4521,7.1373
		c-3.7227,4.5538-7.509,10.5518-14.2856,8.9562c-7.3215-1.7236-7.3044-8.8878-7.0615-14.7628
		c0.6423-15.5359-2.595-30.3079-7.0356-45.0421c-2.2183-7.36-6.2083-12.9656-11.8999-17.8934
		c-18.1257-15.6931-38.8821-25.6663-62.8088-27.6342c-14.7795-1.2155-28.4824-6.0328-42.5154-9.8951
		c-10.7695-2.9641-15.9465-11.1979-19.197-20.9866c-0.8899-2.6804,0.3562-5.514,2.8286-6.7994
		c1.5415-0.8011,4.0593-0.8306,5.679-0.1351c3.0066,1.2906,5.8428,3.1479,8.459,5.1495
		c14.6155,11.1824,31.4631,16.9335,49.2136,20.5939c16.915,3.4879,33.7939,7.1539,50.7322,10.5242
		c11.2285,2.2345,21.4048,7.0632,31.5862,11.9774c16.6033,8.0137,25.2642,20.9585,24.7939,39.6432
		C1986.0746,1435.8971,1986.1322,1438.5568,1986.1322,1441.2148z"/>
	<path d="M1291.849,1370.712c26.2219,4.2202,59.8755,2.6753,90.843,18.1202c17.7485,8.8519,36.9275,14.8278,55.407,22.2363
		c1.7695,0.7094,3.2346,2.4989,2.1489,4.7382c-0.9155,1.8881-2.7913,3.0157-4.8125,2.4802
		c-22.4512-5.948-44.8755-11.9973-67.2966-18.0583c-3.2134-0.8687-6.4751-1.6917-9.5378-2.9619
		c-34.1257-14.1544-69.2556-11.4138-104.2104-5.1345c-19.0469,3.4216-36.4832,12.4824-53.9709,20.6754
		c-18.6921,8.7574-37.1882,17.932-55.8208,26.8176c-2.9524,1.408-6.1267,2.4373-9.3008,3.2351
		c-0.8469,0.2131-2.1594-0.9772-3.0671-1.748c-0.2463-0.209,0.1243-1.27,0.3591-1.8835c0.2324-0.6073,0.5361-1.2712,1.0046-1.6917
		c22.8425-20.4957,46.1606-39.8998,75.9331-50.3854C1234.2262,1378.4531,1258.965,1371.2458,1291.849,1370.712z"/>
	<path d="M1616.8427,1845.1627c-27.071-2.2649-54.573-3.6245-80.6313-12.1763c-19.7827-6.4922-37.2361-17.7612-50.1167-34.8455
		c-7.6099-10.0935-15.1396-20.2495-22.584-30.4656c-2.4822-3.4063-3.0579-7.257-1.5823-11.3621
		c0.8223-2.2891,4.8491-4.0404,6.4641-2.5121c1.916,1.8137,3.5513,3.9224,5.4453,5.7618
		c22.1072,21.4673,46.0996,40.2214,74.5574,52.7866c18.6133,8.2183,37.8608,12.3254,58.2473,11.2534
		c24.593-1.293,49.1997-2.3372,73.8044-3.3948c1.7622-0.0759,4.4009-0.5911,4.46,2.4375c0.042,2.1511-1.7141,3.1426-3.4644,4.1624
		C1661.506,1838.4247,1640.3759,1845.7943,1616.8427,1845.1627z"/>
	<path d="M2361.9707,941.1841c-0.5615,3.8781-1.0354,9.8807-2.3362,15.6986c-9.1604,40.9698-1.3203,79.1405,18.5413,115.4302
		c9.8928,18.0758,20.0273,36.036,29.2473,54.4513c2.2502,4.4946,8.9805,11.1833,2.3291,15.2308
		c-4.3889,2.671-8.4041-5.0806-11.677-8.9794c-18.8364-22.4395-36.5527-45.6674-49.3633-72.2533
		c-4.9443-10.2614-8.8394-20.6582-9.3262-32.287c-0.304-7.2559-2.2017-14.4309-3.0784-21.6792
		c-3.2063-26.5133,0.8455-51.5759,15.3474-74.4501c1.0574-1.6676,2.2314-3.3484,3.6902-4.6403
		c0.8308-0.7357,2.46-1.1403,3.5264-0.8755c1.0186,0.2529,1.863,1.4965,2.6074,2.4432c0.3687,0.4692,0.4595,1.2483,0.4714,1.891
		C2361.9998,933.8154,2361.9707,936.4677,2361.9707,941.1841z"/>
	<path d="M1516.1864,666.0328c0.4795-3.1031,0.665-4.41,0.886-5.7108c0.4333-2.5502,4.2983-4.1653,6.1892-2.5859
		c1.0046,0.8392,2.1809,1.5638,2.9429,2.59c14.3057,19.2669,26.7642,39.4497,32.7092,63.1096
		c6.6418,26.4339,10.0435,53.361,13.022,80.3713c0.0718,0.6508,0.1804,1.4467-0.1104,1.9569
		c-0.5945,1.0428-1.2788,2.4146-2.2444,2.7599c-0.991,0.3545-2.7529,0.0542-3.5042-0.6638
		c-4.9082-4.6909-7.5464-10.838-10.0188-16.97c-5.7007-14.1367-11.7371-28.1746-16.6123-42.599
		c-7.2056-21.3176-13.7073-42.8809-20.1013-64.4603C1517.4816,677.5432,1517.0072,670.8441,1516.1864,666.0328z"/>
	<path d="M1673.913,734.7294c-1.6553,25.1211,0.0557,51.1534-4.3472,76.8353c-0.5554,3.2394-1.1235,6.5864-2.4578,9.5342
		c-0.6287,1.389-3.3081,2.7863-4.8818,0.5707c-1.8713-2.6342-3.6589-5.5106-4.6523-8.5535
		c-3.949-12.0957-5.2295-24.681-5.8579-37.3055c-1.791-35.9691,1.478-71.706,5.5073-107.3766
		c0.6619-5.8606,2.7375-11.5799,4.4207-17.2875c0.2583-0.876,1.9207-1.8191,2.9592-1.8488
		c1.0442-0.0298,2.8538,0.8516,3.0637,1.6615c1.49,5.7418,3.0137,11.5161,3.8596,17.3763
		C1674.6725,690.1283,1673.7057,712.0954,1673.913,734.7294z"/>
	<path d="M1728.8641,1318.4288c-7.218-0.9177-14.4141-2.0974-21.658-2.7067c-27.8059-2.3383-55.3848,18.4237-61.0137,45.8512
		c-0.6628,3.2303-0.6077,6.603-1.1763,9.859c-0.4414,2.5262-0.9116,5.5587-4.4817,5.3129
		c-2.9404-0.2025-4.5291-2.5704-5.4402-5.0529c-5.7427-15.6449-7.4695-30.9086,4.0771-45.0905
		c3.7515-4.6077,6.6228-9.9346,10.396-14.5216c10.9795-13.3479,25.1536-18.9457,42.353-16.5142
		c3.937,0.5566,7.8962,1.0884,11.7625,1.9878c14.8093,3.4445,29.5859,7.0275,44.3704,10.5785
		c1.6245,0.3903,2.3518,1.4657,1.8359,2.8983c-0.4246,1.1794-0.8899,2.6689-1.8235,3.2874
		C1742.236,1318.1808,1735.5922,1318.3368,1728.8641,1318.4288z"/>
	<path d="M2173.0217,1020.5972c-2.5061-1.2811-3.6311-3.2594-2.8552-5.0427c1.8416-4.2328,3.7874-8.5692,6.5276-12.2391
		c25.2268-33.783,57.28-58.9316,96.2385-75.1411c1.5771-0.6561,4.0879-0.5367,5.5483,0.2982
		c3.1616,1.8074,1.6494,5.0061,0.3289,6.8956c-3.4009,4.8656-6.9312,9.8159-11.2422,13.8413
		c-27.7427,25.9067-57.3889,49.4182-89.5125,69.7136C2176.4873,1019.9136,2174.439,1020.1434,2173.0217,1020.5972z"/>
	<path d="M2196.248,865.4723c2.3416,2.6769,0.5635,4.9574-0.7627,7.2118c-8.4397,14.3472-16.6516,28.8373-25.4331,42.9729
		c-15.4709,24.9037-30.7427,49.8916-42.4868,76.8497c-0.7844,1.7999-1.9426,3.5642-3.3398,4.9194
		c-0.772,0.749-2.4895,1.0079-3.6218,0.7605c-1.072-0.234-2.4783-1.2358-2.8054-2.2124
		c-2.1992-6.5664-1.3347-13.3643,0.3306-19.7113c12.093-46.0961,36.3662-83.9496,76.3032-110.9481
		C2194.8237,865.05,2195.6353,865.4061,2196.248,865.4723z"/>
	<polygon points="1695.8102,1817.7218 1695.8607,1816.7374 1697.0031,1817.2628 	"/>
	<path d="M2046.9913,3021.8301c1.2623-0.9553,1.3544-2.0217,0.106-2.9761c-0.231-0.1768-1.312,0.1987-1.4185,0.5151
		c-0.5366,1.5955,0.1355,2.3528,1.7969,2.1714C2047.5162,3021.5278,2046.9913,3021.8301,2046.9913,3021.8301z"/>
	<path d="M1559.8749,2825.6548c-1.2007-0.4988-2.4011-0.9978-3.6018-1.4968c1.2271,0.4722,2.4539,0.9441,3.6992,1.4084
		C1559.9904,2825.5586,1559.8749,2825.6548,1559.8749,2825.6548z"/>
	<path d="M1497.3165,1326.8179c0.4397,0.3739,0.97,0.6876,1.2766,1.15c0.1321,0.1997-0.1992,0.7065-0.3201,1.0737
		c-0.1582-0.8813-0.3167-1.7628-0.4512-2.6655C1497.8456,1326.3549,1497.3165,1326.8179,1497.3165,1326.8179z"/>
	<path d="M2229.5581,3091.5854l-0.4441-0.6252c0,0-0.1768,0.2397-0.1643,0.239
		C2228.9619,3091.1982,2229.5581,3091.5854,2229.5581,3091.5854z"/>
</g>
</svg>
